<svg width="96" height="96" viewBox="0 0 96 96" xmlns="http://www.w3.org/2000/svg"><path d="M792,120H96v504c0,39.76,32.24,72,72,72h96v144l144-144h456V192C864,152.24,831.76,120,792,120z M617.87,416.29l-40.85,12.6 c-36.39,11.21-64.89,39.73-76.13,76.13l-12.6,40.85c-2.53,8.18-14.09,8.18-16.59,0l-12.6-40.85 c-11.21-36.39-39.73-64.89-76.13-76.13l-40.85-12.6c-8.18-2.53-8.18-14.09,0-16.59l40.85-12.6c36.39-11.21,64.89-39.73,76.13-76.13 l12.6-40.85c2.53-8.18,14.09-8.18,16.59,0l12.6,40.85c11.21,36.39,39.73,64.89,76.13,76.13l40.85,12.6 C626.04,402.24,626.04,413.8,617.87,416.29L617.87,416.29z" transform="scale(.1)" fill="#000"/></svg>