<svg width="96" height="96" viewBox="0 0 96 96" xmlns="http://www.w3.org/2000/svg"><g transform="scale(.096)"><g id="Page-1" fill="#000000" fill-rule="evenodd" stroke="#000000" stroke-width="1"><g id="Data-Analytics_19371" fill="#000000" fill-rule="nonzero" transform="translate(106 106)"><path id="Data_Analytics" d="M375,-5.68434189e-14 C582.107,-5.68434189e-14 750,167.893 750,375 C750.122004,457.205964 723.107288,537.153733 673.148,602.437 L774.355,703.645 C793.880763,723.171137 793.880763,754.828863 774.355,774.355 C754.828863,793.880763 723.171137,793.880763 703.645,774.355 L602.437,673.148 C537.153733,723.107288 457.205964,750.122004 375,750 C167.893,750 0,582.107 0,375 C0,167.893 167.893,-5.68434189e-14 375,-5.68434189e-14 Z M374.5,49 C194.725,49 49.988,194.737 49.988,374.5 C49.988,554.263 194.725,699.992 374.5,699.992 C554.275,699.992 700.012,554.267 700.012,374.5 C700.012,194.733 554.275,49 374.5,49 Z M315.609,374.066 C323.180737,374.073173 330.697416,372.779352 337.831,370.241 L404.474,436.78 C394.777687,464.025732 403.908202,494.411691 427.016411,511.800167 C450.124619,529.188642 481.850709,529.54648 505.345238,512.683636 C528.839767,495.820791 538.653317,465.648502 529.574,438.191 L643,324.942 C639.272347,303.770125 633.049303,283.114479 624.461,263.407 L490.389,397.269 C475.656351,391.669288 459.413073,391.487823 444.559,396.757 L377.916,330.219 C387.612313,302.973268 378.481798,272.587309 355.373589,255.198833 C332.265381,237.810358 300.539291,237.45252 277.044762,254.315364 C253.550233,271.178209 243.736683,301.350498 252.816,328.808 L114,467.407 C120.894684,486.147348 129.822305,504.075694 140.623,520.871 L292,369.73 C299.538976,372.604481 307.540621,374.074053 315.609,374.066 Z M466.781,425.949989 C485.008989,425.978708 499.765113,440.773611 499.746,459.001612 C499.726851,477.229614 484.939703,491.993509 466.711694,491.983959 C448.483685,491.9744 433.712,477.195012 433.712,458.967 C433.718628,450.203369 437.206461,441.801336 443.40816,435.60939 C449.609858,429.417443 458.01737,425.942836 466.781,425.949989 L466.781,425.949989 Z M315.609,275.01499 C333.836989,275.043708 348.593113,289.838611 348.574,308.066612 C348.554851,326.294614 333.767703,341.058509 315.539694,341.048959 C297.311685,341.0394 282.54,326.260012 282.54,308.032 C282.546893,299.268451 286.034811,290.866572 292.236452,284.674683 C298.438093,278.482794 306.845451,275.008102 315.609,275.01499 L315.609,275.01499 Z"/></g></g></g></svg>