<svg width="96" height="96" viewBox="0 0 96 96" xmlns="http://www.w3.org/2000/svg"><path fill="#000000" fill-rule="evenodd" d="M936.69,626.977C929.946,633.537,921.147,638,911,638H748v74.666L609,575.9v0a12.653,12.653,0,0,1-2.2-2.331l-0.028.028a35.9,35.9,0,0,1-8.649-23.1h-0.013s0.006-.416.006-0.5-0.006.5-.006-0.5h0.013a37.936,37.936,0,0,1,10.844-25.277l-0.057.1L748,387.666V462H911c20.684,0,37,17.456,37,38.166v100A37.165,37.165,0,0,1,936.69,626.977ZM900,437H773V412.553L825,362.8V276.261C731,369.145,559.513,535.5,559.513,535.5h-0.054c-15.3,16-36.133,22.8-59.119,22.8-24.349,0-46.26-9.8-61.76-26.8h-0.108L175,275.051v87.593L410.742,590.5h0.2c23.151,23,54.541,34.7,89.127,34.7,34.244,0,65.361-11.855,88.491-34.429,0.772,0.878,1.561,1.681,2.386,2.522,0.164,0.17.329,0.307,0.5,0.473L730.587,730.512a24.99,24.99,0,0,0,17.53,7.163A24.944,24.944,0,0,0,773,712.666V662H900v38h0V800H187.5A87.5,87.5,0,0,1,100,712.5c0-.164.011-0.324,0.012-0.488L100,712V275h0V175H812v-0.009c0.148,0,.3-0.005.444-0.005A87.593,87.593,0,0,1,900,262.61c0,0.1,0,.192,0,0.289V437Z" transform="scale(.096)"/></svg>