<svg width="96" height="96" viewBox="0 0 96 96" xmlns="http://www.w3.org/2000/svg"><path fill="#000000" fill-rule="evenodd" d="M825,175H150V737.5a12.5,12.5,0,0,1-25,0V285H75V750a75,75,0,0,0,75,75H850a75,75,0,0,0,75-75V275A100,100,0,0,0,825,175ZM262.5,250h550a37.5,37.5,0,0,1,0,75h-550A37.5,37.5,0,0,1,262.5,250ZM525,695H275a50,50,0,0,1-50-50V415H475a50,50,0,0,1,50,50V695Zm220,0H625a20,20,0,0,1,0-40H745A20,20,0,0,1,745,695Zm90-80H625a20,20,0,0,1,0-40H835A20,20,0,0,1,835,615Zm0-80H625a20,20,0,0,1,0-40H835A20,20,0,0,1,835,535Zm0-80H625a20,20,0,0,1,0-40H835A20,20,0,0,1,835,455Z" transform="scale(.096)"/></svg>