<svg width="96" height="96" viewBox="0 0 96 96" xmlns="http://www.w3.org/2000/svg"><path fill="#000000" fill-rule="evenodd" d="M502.343,75.009C501.4,75,499.447,75,499.447,75c-233.368.017-423.335,188.418-424.87,422.165C73,731.884,261.979,923.422,496.683,924.992c0.963,0.008,1.909,0,2.871,0,233.367,0,423.326-188.427,424.9-422.166C926,268.1,737.021,76.569,502.343,75.009ZM456,127.444v23.538a24.274,24.274,0,0,1-6.169,14.9l-40.008,40.012a24.278,24.278,0,0,1-14.892,6.169H316.415a8.753,8.753,0,0,0-8.725,8.725v34.9a8.75,8.75,0,0,0,8.725,8.725h78.518a8.753,8.753,0,0,1,8.724,8.725v34.909a8.749,8.749,0,0,1-8.724,8.725h-34.9a24.284,24.284,0,0,0-14.893,6.169l-31.284,31.288a24.287,24.287,0,0,0-6.169,14.894v34.9a24.272,24.272,0,0,1-6.168,14.894L270.237,450.2a24.284,24.284,0,0,1-14.892,6.169h-34.9a24.284,24.284,0,0,1-14.893-6.169l-31.284-31.288a24.29,24.29,0,0,0-14.893-6.169h-24.6C171.05,261.716,299.111,145.742,456,127.444ZM203,729.405v-20a24.286,24.286,0,0,0-6.168-14.894l-31.284-31.288a24.275,24.275,0,0,1-6.169-14.894V569.8a24.285,24.285,0,0,1,6.169-14.894l40.008-40.013a24.284,24.284,0,0,1,14.893-6.169h26.173a24.284,24.284,0,0,1,14.892,6.169l83.63,83.638a24.284,24.284,0,0,0,14.893,6.169h34.9a8.753,8.753,0,0,1,8.724,8.725v82.011a24.287,24.287,0,0,1-6.169,14.894l-36.524,36.52a24.238,24.238,0,0,0-6.168,14.894v31.415a24.292,24.292,0,0,1-6.168,14.894l-23.8,23.807A377.5,377.5,0,0,1,203,729.405ZM674.253,831.686L654.1,811.544a24.276,24.276,0,0,1-6.168-14.894V665.764a24.283,24.283,0,0,0-6.168-14.893l-40.009-40.013a24.285,24.285,0,0,0-14.892-6.17H499.624a8.75,8.75,0,0,1-8.725-8.725V517.446a24.286,24.286,0,0,1,6.168-14.894l40.009-40.013a24.284,24.284,0,0,1,14.893-6.169h87.242A24.282,24.282,0,0,0,654.1,450.2l40.009-40.013a24.284,24.284,0,0,1,14.893-6.169h26.173a8.749,8.749,0,0,0,8.724-8.725V369.119a8.753,8.753,0,0,0-8.724-8.725H709.005a24.289,24.289,0,0,0-14.893,6.168L654.1,406.576a24.286,24.286,0,0,1-14.892,6.168l-86.765-.008a8.744,8.744,0,0,1-8.724-8.725v-34.9a24.413,24.413,0,0,1,6.143-14.919l39.582-39.962a24.129,24.129,0,0,1,14.867-6.195h78.518a8.75,8.75,0,0,0,8.725-8.725V273.134a8.753,8.753,0,0,0-8.725-8.725h-34.9a8.75,8.75,0,0,1-8.724-8.725v-34.9a8.753,8.753,0,0,1,8.724-8.725l91.818,0.009c80.273,67.108,132,167.089,134.671,278.862l-28.387-28.39a24.287,24.287,0,0,0-14.893-6.169H804.972a8.753,8.753,0,0,0-8.725,8.725V500a24.276,24.276,0,0,0,6.168,14.894L833.7,546.169a24.286,24.286,0,0,1,6.168,14.894v34.9a24.277,24.277,0,0,1-6.168,14.895l-31.285,31.287a24.288,24.288,0,0,0-6.168,14.894v71.8A378.753,378.753,0,0,1,674.253,831.686Z" transform="scale(.096)"/></svg>